<svg id="Layer_1" data-name="Layer 1" xmlns="http://www.w3.org/2000/svg" viewBox="0 0 255 115"><defs><style>.cls-1{fill:#737373;}.cls-2{fill:#f25022;}.cls-3{fill:#7fba00;}.cls-4{fill:#00a4ef;}.cls-5{fill:#ffb900;}</style></defs><path class="cls-1" d="M110.59,45.4V71h-4.44V50.9h0L98.2,71h-3L87.07,50.9H87V71H82.89V45.4h6.37l7.35,18.92h.11l7.76-18.92Zm3.76,1.94a2.34,2.34,0,0,1,.78-1.79,2.62,2.62,0,0,1,1.84-.72,2.56,2.56,0,0,1,1.9.74,2.39,2.39,0,0,1,.75,1.77,2.32,2.32,0,0,1-.77,1.77,2.8,2.8,0,0,1-3.74,0,2.32,2.32,0,0,1-.76-1.76M119.15,71h-4.33V52.59h4.33Zm13.07-3.14a5.87,5.87,0,0,0,2.12-.44,9,9,0,0,0,2.15-1.18v4a8.76,8.76,0,0,1-2.35.89,13,13,0,0,1-2.88.3,8.72,8.72,0,0,1-9.12-9.1A10.44,10.44,0,0,1,124.73,55a9.36,9.36,0,0,1,7.33-2.86,9.85,9.85,0,0,1,2.45.31,8.51,8.51,0,0,1,2,.72v4.14a9.24,9.24,0,0,0-2.05-1.13,5.79,5.79,0,0,0-2.13-.4,5.39,5.39,0,0,0-4.12,1.66A6.23,6.23,0,0,0,126.62,62a5.93,5.93,0,0,0,1.51,4.33,5.41,5.41,0,0,0,4.09,1.55m16.59-15.5a5.18,5.18,0,0,1,.93.07,4.15,4.15,0,0,1,.7.18V57a4.18,4.18,0,0,0-1-.47,4.86,4.86,0,0,0-1.58-.22,3.33,3.33,0,0,0-2.68,1.34,6.41,6.41,0,0,0-1.09,4.11V71h-4.34V52.7h4.34v2.85h0a5.13,5.13,0,0,1,1.79-2.35,4.84,4.84,0,0,1,2.87-.84m1.86,9.72a9.93,9.93,0,0,1,2.57-7.21,9.46,9.46,0,0,1,7.13-2.66,8.82,8.82,0,0,1,6.72,2.56,9.69,9.69,0,0,1,2.42,6.92,9.76,9.76,0,0,1-2.57,7.1,9.29,9.29,0,0,1-7,2.64,9.1,9.1,0,0,1-6.77-2.51,9.21,9.21,0,0,1-2.51-6.84m4.49-.14a6.56,6.56,0,0,0,1.31,4.39,4.65,4.65,0,0,0,3.73,1.51,4.33,4.33,0,0,0,3.58-1.51,7,7,0,0,0,1.23-4.5,6.79,6.79,0,0,0-1.27-4.47,4.46,4.46,0,0,0-3.58-1.51,4.52,4.52,0,0,0-3.68,1.58,6.87,6.87,0,0,0-1.32,4.51m20.82-4.47a1.81,1.81,0,0,0,.59,1.45,9.79,9.79,0,0,0,2.59,1.33,8.79,8.79,0,0,1,3.62,2.32,4.83,4.83,0,0,1,1,3.12,5,5,0,0,1-2,4.15,8.44,8.44,0,0,1-5.36,1.56,12.52,12.52,0,0,1-2.52-.28,10.69,10.69,0,0,1-2.34-.7V66.19a10.62,10.62,0,0,0,2.53,1.3,7.4,7.4,0,0,0,2.45.48,4.39,4.39,0,0,0,2.15-.41,1.47,1.47,0,0,0,.7-1.37,1.9,1.9,0,0,0-.72-1.5A10.82,10.82,0,0,0,176,63.27,8.36,8.36,0,0,1,172.58,61a4.86,4.86,0,0,1-1-3.16,5,5,0,0,1,2-4.07,7.82,7.82,0,0,1,5.09-1.59,12.45,12.45,0,0,1,2.15.21,10.46,10.46,0,0,1,2,.55v4.1a9.08,9.08,0,0,0-2-1,6.46,6.46,0,0,0-2.25-.41,3.32,3.32,0,0,0-1.92.48,1.53,1.53,0,0,0-.68,1.31m9.68,4.61a9.93,9.93,0,0,1,2.57-7.21,9.46,9.46,0,0,1,7.13-2.66A8.82,8.82,0,0,1,202,54.77a9.69,9.69,0,0,1,2.42,6.92,9.76,9.76,0,0,1-2.57,7.1,9.29,9.29,0,0,1-7,2.64,9.14,9.14,0,0,1-6.78-2.51,9.24,9.24,0,0,1-2.5-6.84m4.49-.14a6.56,6.56,0,0,0,1.31,4.39,4.63,4.63,0,0,0,3.73,1.51,4.33,4.33,0,0,0,3.58-1.51,7,7,0,0,0,1.23-4.5,6.79,6.79,0,0,0-1.27-4.47,4.46,4.46,0,0,0-3.58-1.51,4.52,4.52,0,0,0-3.68,1.58,6.87,6.87,0,0,0-1.32,4.51m28.72-5.76h-6.45V71h-4.33V56.18h-3.17V52.7h3.06V50.14a6.33,6.33,0,0,1,1.89-4.73,6.64,6.64,0,0,1,4.84-1.85,11.51,11.51,0,0,1,1.4.08,5.12,5.12,0,0,1,1.07.24v3.73a4.89,4.89,0,0,0-.74-.3,3.82,3.82,0,0,0-1.22-.18,2.55,2.55,0,0,0-2.07.85,3.71,3.71,0,0,0-.73,2.5V52.7h6.45V48.57l4.34-1.32V52.7h4.33v3.48h-4.33v8.48a3.54,3.54,0,0,0,.61,2.36,2.42,2.42,0,0,0,1.92.69,2.85,2.85,0,0,0,.89-.18,4.53,4.53,0,0,0,.91-.42v3.71a5.24,5.24,0,0,1-1.36.42,9.3,9.3,0,0,1-1.87.2A5.32,5.32,0,0,1,220.19,70a6.2,6.2,0,0,1-1.36-4.38Z"/><rect class="cls-2" x="28" y="37" width="20" height="20"/><rect class="cls-3" x="50" y="37" width="20" height="20"/><rect class="cls-4" x="28" y="59" width="20" height="20"/><rect class="cls-5" x="50" y="59" width="20" height="20"/></svg>